<svg width="26" height="25" viewBox="0 0 26 25" fill="none" xmlns="http://www.w3.org/2000/svg">
<path d="M5.70833 14.5833C5.43207 14.5833 5.16711 14.6931 4.97176 14.8884C4.77641 15.0838 4.66667 15.3487 4.66667 15.625V20.8333C4.66667 21.1096 4.77641 21.3746 4.97176 21.5699C5.16711 21.7653 5.43207 21.875 5.70833 21.875C5.9846 21.875 6.24955 21.7653 6.4449 21.5699C6.64025 21.3746 6.75 21.1096 6.75 20.8333V15.625C6.75 15.3487 6.64025 15.0838 6.4449 14.8884C6.24955 14.6931 5.9846 14.5833 5.70833 14.5833Z" fill="#0CC2DC"/>
<path d="M10.9167 10.4167C10.6404 10.4167 10.3754 10.5264 10.1801 10.7218C9.98475 10.9171 9.875 11.1821 9.875 11.4583V20.8333C9.875 21.1096 9.98475 21.3746 10.1801 21.5699C10.3754 21.7653 10.6404 21.875 10.9167 21.875C11.1929 21.875 11.4579 21.7653 11.6532 21.5699C11.8486 21.3746 11.9583 21.1096 11.9583 20.8333V11.4583C11.9583 11.1821 11.8486 10.9171 11.6532 10.7218C11.4579 10.5264 11.1929 10.4167 10.9167 10.4167Z" fill="#0CC2DC"/>
<path d="M16.125 14.5833C15.8487 14.5833 15.5838 14.6931 15.3884 14.8884C15.1931 15.0838 15.0833 15.3487 15.0833 15.625V20.8333C15.0833 21.1096 15.1931 21.3746 15.3884 21.5699C15.5838 21.7653 15.8487 21.875 16.125 21.875C16.4013 21.875 16.6662 21.7653 16.8616 21.5699C17.0569 21.3746 17.1667 21.1096 17.1667 20.8333V15.625C17.1667 15.3487 17.0569 15.0838 16.8616 14.8884C16.6662 14.6931 16.4013 14.5833 16.125 14.5833Z" fill="#0CC2DC"/>
<path d="M21.3333 10.4167C21.0571 10.4167 20.7921 10.5264 20.5968 10.7218C20.4014 10.9171 20.2917 11.1821 20.2917 11.4583V20.8333C20.2917 21.1096 20.4014 21.3746 20.5968 21.5699C20.7921 21.7653 21.0571 21.875 21.3333 21.875C21.6096 21.875 21.8746 21.7653 22.0699 21.5699C22.2653 21.3746 22.375 21.1096 22.375 20.8333V11.4583C22.375 11.1821 22.2653 10.9171 22.0699 10.7218C21.8746 10.5264 21.6096 10.4167 21.3333 10.4167Z" fill="#0CC2DC"/>
<path d="M5.70833 11.4583C5.86128 11.4587 6.01244 11.4254 6.15106 11.3608C6.28969 11.2961 6.41238 11.2018 6.51042 11.0844L10.9167 5.7948L15.324 11.0844C15.4252 11.1963 15.5488 11.2858 15.6868 11.347C15.8248 11.4083 15.9741 11.4399 16.125 11.4399C16.276 11.4399 16.4252 11.4083 16.5632 11.347C16.7012 11.2858 16.8248 11.1963 16.926 11.0844L22.1344 4.83438C22.3115 4.62194 22.3969 4.34784 22.3719 4.0724C22.3469 3.79695 22.2135 3.54272 22.001 3.36564C21.7886 3.18855 21.5145 3.10311 21.2391 3.12811C20.9636 3.15312 20.7094 3.28652 20.5323 3.49897L16.125 8.78959L11.7177 3.49897C11.6164 3.38703 11.4928 3.29756 11.3549 3.23633C11.2169 3.17509 11.0676 3.14345 10.9167 3.14345C10.7657 3.14345 10.6164 3.17509 10.4785 3.23633C10.3405 3.29756 10.2169 3.38703 10.1156 3.49897L4.90729 9.74897C4.78024 9.9011 4.69923 10.0863 4.67377 10.2829C4.64832 10.4795 4.67947 10.6792 4.76358 10.8587C4.84769 11.0382 4.98125 11.1899 5.1486 11.2961C5.31595 11.4024 5.51012 11.4586 5.70833 11.4583Z" fill="#0CC2DC"/>
</svg>
