<svg width="26" height="25" viewBox="0 0 26 25" fill="none" xmlns="http://www.w3.org/2000/svg">
<path d="M5.70833 14.5833C5.43207 14.5833 5.16711 14.693 4.97176 14.8884C4.77641 15.0837 4.66667 15.3487 4.66667 15.6249V20.8333C4.66667 21.1095 4.77641 21.3745 4.97176 21.5699C5.16711 21.7652 5.43207 21.8749 5.70833 21.8749C5.9846 21.8749 6.24955 21.7652 6.4449 21.5699C6.64025 21.3745 6.75 21.1095 6.75 20.8333V15.6249C6.75 15.3487 6.64025 15.0837 6.4449 14.8884C6.24955 14.693 5.9846 14.5833 5.70833 14.5833Z" fill="#2F2F38" fill-opacity="0.39"/>
<path d="M10.9167 10.4166C10.6404 10.4166 10.3754 10.5264 10.1801 10.7217C9.98475 10.9171 9.875 11.182 9.875 11.4583V20.8333C9.875 21.1096 9.98475 21.3745 10.1801 21.5699C10.3754 21.7652 10.6404 21.8749 10.9167 21.8749C11.1929 21.8749 11.4579 21.7652 11.6532 21.5699C11.8486 21.3745 11.9583 21.1096 11.9583 20.8333V11.4583C11.9583 11.182 11.8486 10.9171 11.6532 10.7217C11.4579 10.5264 11.1929 10.4166 10.9167 10.4166Z" fill="#2F2F38" fill-opacity="0.39"/>
<path d="M16.125 14.5833C15.8487 14.5833 15.5838 14.693 15.3884 14.8884C15.1931 15.0837 15.0833 15.3487 15.0833 15.6249V20.8333C15.0833 21.1095 15.1931 21.3745 15.3884 21.5699C15.5838 21.7652 15.8487 21.8749 16.125 21.8749C16.4013 21.8749 16.6662 21.7652 16.8616 21.5699C17.0569 21.3745 17.1667 21.1095 17.1667 20.8333V15.6249C17.1667 15.3487 17.0569 15.0837 16.8616 14.8884C16.6662 14.693 16.4013 14.5833 16.125 14.5833Z" fill="#2F2F38" fill-opacity="0.39"/>
<path d="M21.3333 10.4166C21.0571 10.4166 20.7921 10.5264 20.5968 10.7217C20.4014 10.9171 20.2917 11.182 20.2917 11.4583V20.8333C20.2917 21.1096 20.4014 21.3745 20.5968 21.5699C20.7921 21.7652 21.0571 21.8749 21.3333 21.8749C21.6096 21.8749 21.8746 21.7652 22.0699 21.5699C22.2653 21.3745 22.375 21.1096 22.375 20.8333V11.4583C22.375 11.182 22.2653 10.9171 22.0699 10.7217C21.8746 10.5264 21.6096 10.4166 21.3333 10.4166Z" fill="#2F2F38" fill-opacity="0.39"/>
<path d="M5.70833 11.4583C5.86128 11.4587 6.01244 11.4253 6.15106 11.3607C6.28969 11.2961 6.41238 11.2017 6.51042 11.0843L10.9167 5.79474L15.324 11.0843C15.4252 11.1963 15.5488 11.2857 15.6868 11.347C15.8248 11.4082 15.9741 11.4398 16.125 11.4398C16.276 11.4398 16.4252 11.4082 16.5632 11.347C16.7012 11.2857 16.8248 11.1963 16.926 11.0843L22.1344 4.83432C22.3115 4.62187 22.3969 4.34778 22.3719 4.07233C22.3469 3.79689 22.2135 3.54266 22.001 3.36557C21.7886 3.18849 21.5145 3.10305 21.2391 3.12805C20.9636 3.15306 20.7094 3.28646 20.5323 3.49891L16.125 8.78953L11.7177 3.49891C11.6164 3.38697 11.4928 3.2975 11.3549 3.23626C11.2169 3.17503 11.0676 3.14339 10.9167 3.14339C10.7657 3.14339 10.6164 3.17503 10.4785 3.23626C10.3405 3.2975 10.2169 3.38697 10.1156 3.49891L4.90729 9.74891C4.78024 9.90104 4.69923 10.0863 4.67377 10.2828C4.64832 10.4794 4.67947 10.6792 4.76358 10.8586C4.84769 11.0381 4.98125 11.1899 5.1486 11.2961C5.31595 11.4023 5.51012 11.4586 5.70833 11.4583Z" fill="#2F2F38" fill-opacity="0.39"/>
</svg>
