<svg width="18" height="21" viewBox="0 0 18 21" fill="none" xmlns="http://www.w3.org/2000/svg">
<path d="M9 11.5417C10.7259 11.5417 12.125 10.1425 12.125 8.41666C12.125 6.69077 10.7259 5.29165 9 5.29165C7.27411 5.29165 5.875 6.69077 5.875 8.41666C5.875 10.1425 7.27411 11.5417 9 11.5417Z" stroke="#2F2F38" stroke-opacity="0.39" stroke-width="2" stroke-linecap="round" stroke-linejoin="round"/>
<path d="M15.0417 12.5187H15.0302C15.7821 11.4166 16.2172 10.1293 16.2882 8.79701C16.3591 7.46471 16.0631 6.13848 15.4325 4.96275C14.8019 3.78701 13.8607 2.80684 12.7116 2.12896C11.5624 1.45109 10.2493 1.10149 8.91524 1.11825C7.58115 1.13501 6.27724 1.51747 5.14548 2.224C4.01372 2.93053 3.0975 3.93403 2.49659 5.12523C1.89569 6.31644 1.63312 7.64968 1.7375 8.97978C1.84187 10.3099 2.30919 11.5858 3.08855 12.6687H3.07188L3.21875 12.8469C3.32292 12.9792 3.42709 13.1083 3.53125 13.2333L9 19.875L14.3438 13.3667C14.5448 13.1493 14.7326 12.9201 14.9063 12.6802L15.0417 12.5187Z" stroke="#2F2F38" stroke-opacity="0.39" stroke-width="2" stroke-linecap="round" stroke-linejoin="round"/>
</svg>
