<svg width="14" height="20" viewBox="0 0 14 20" fill="none" xmlns="http://www.w3.org/2000/svg">
<path d="M7 0C5.23966 0.0135575 3.54907 0.689874 2.26509 1.89418C0.981117 3.09849 0.198038 4.74235 0.0718989 6.49821C-0.0542403 8.25407 0.485823 9.99299 1.58447 11.3685C2.68312 12.7439 4.25968 13.655 6 13.92V19C6 19.2652 6.10535 19.5196 6.29289 19.7071C6.48043 19.8946 6.73478 20 7 20C7.26521 20 7.51957 19.8946 7.7071 19.7071C7.89464 19.5196 8 19.2652 8 19V13.92C9.74031 13.655 11.3169 12.7439 12.4155 11.3685C13.5142 9.99299 14.0542 8.25407 13.9281 6.49821C13.802 4.74235 13.0189 3.09849 11.7349 1.89418C10.4509 0.689874 8.76033 0.0135575 7 0ZM7 5.5C6.60217 5.5 6.22064 5.65804 5.93933 5.93934C5.65803 6.22064 5.5 6.60218 5.5 7C5.5 7.26522 5.39464 7.51957 5.2071 7.70711C5.01957 7.89464 4.76521 8 4.5 8C4.23478 8 3.98043 7.89464 3.79289 7.70711C3.60535 7.51957 3.5 7.26522 3.5 7C3.5 6.07174 3.86874 5.1815 4.52512 4.52513C5.1815 3.86875 6.07174 3.5 7 3.5C7.26521 3.5 7.51957 3.60536 7.7071 3.79289C7.89464 3.98043 8 4.23478 8 4.5C8 4.76522 7.89464 5.01957 7.7071 5.20711C7.51957 5.39464 7.26521 5.5 7 5.5Z" fill="#0CC2DC"/>
</svg>
